<?xml version="1.0" encoding="UTF-8"?>
<svg width="750px" height="100px" viewBox="0 0 750 100" version="1.1" xmlns="http://www.w3.org/2000/svg" xmlns:xlink="http://www.w3.org/1999/xlink">
    <!-- Generator: Sketch 55.2 (78181) - https://sketchapp.com -->
    <title>brand</title>
    <desc>Created with Sketch.</desc>
    <g id="brand" stroke="none" stroke-width="1" fill="none" fill-rule="evenodd">
        <g id="Group-14-Copy">
            <g id="Group-15-Copy">
                <polygon id="Rectangle-Copy-162" fill="#6F9DFF" points="49.9811605 2.72004641e-13 99.962321 33.3333333 99.962321 100 49.9811605 66.6666667"></polygon>
                <polygon id="Rectangle-Copy-164" fill="#A1BFFF" transform="translate(124.952901, 50.000000) scale(-1, 1) translate(-124.952901, -50.000000) " points="99.962321 2.72004641e-13 149.943482 33.3333333 149.943482 100 99.962321 66.6666667"></polygon>
                <path d="M0,6.25277607e-13 L47.152552,31.4468836 C48.2766733,32.1965802 49.0291384,32.952381 49.4099472,33.7142857 C49.7907561,34.4761905 49.9811605,35.4285714 49.9811605,36.5714286 L49.9811605,89.1428571 C49.783897,91.6268519 48.6414705,93.3411376 46.5538809,94.2857143 C44.4662914,95.230291 42.3756657,94.9788723 40.2820037,93.5314582 L0,66.6666667 L0,6.25277607e-13 Z" id="Rectangle-Copy-165" fill="#CFDEFF" transform="translate(24.990580, 47.422611) scale(-1, 1) translate(-24.990580, -47.422611) "></path>
                <path d="M149.943482,6.25277607e-13 L197.096034,31.4468836 C198.220155,32.1965802 198.97262,32.952381 199.353429,33.7142857 C199.734238,34.4761905 199.924642,35.4285714 199.924642,36.5714286 L199.924642,89.1428571 C199.727379,91.6268519 198.584952,93.3411376 196.497362,94.2857143 C194.409773,95.230291 192.319147,94.9788723 190.225485,93.5314582 L149.943482,66.6666667 L149.943482,6.25277607e-13 Z" id="Rectangle-Copy-166" fill="#3173FF"></path>
            </g>
            <path d="M309.675947,41.4350555 C303.172068,41.4350555 298.836148,46.0009018 298.836148,53.8769867 L298.836148,82.2993802 L284.915564,82.2993802 L284.915564,52.9638175 C284.801461,45.7726095 280.693747,41.4350555 275.102693,41.4350555 C268.712916,41.4350555 263.920584,45.3160249 263.920584,53.8769867 L263.920584,82.2993802 L250,82.2993802 L250,28.9931242 L263.920584,28.9931242 L263.920584,36.8692091 C266.65906,30.9336089 273.277042,27.9658088 279.210406,27.9658088 C287.768142,28.4223934 293.359197,31.732632 296.211775,37.8965246 C299.977179,31.1619012 305.568234,27.8516626 312.984938,27.8516626 C326.106801,27.8516626 333.523505,36.2984784 333.523505,51.8223559 L333.523505,82.2993802 L319.717024,82.2993802 L319.717024,53.3062559 C319.717024,45.8867557 315.609311,41.4350555 309.675947,41.4350555 Z M383.500685,55.475033 C383.500685,47.2565096 377.453218,41.5492016 369.5801,41.5492016 C361.706983,41.5492016 355.659516,47.2565096 355.659516,55.475033 C355.659516,64.0359948 361.706983,69.7433028 369.5801,69.7433028 C377.453218,69.7433028 383.500685,64.0359948 383.500685,55.475033 Z M389.205842,75.5647568 C383.842994,80.701334 377.339115,83.3266956 369.5801,83.3266956 C361.821086,83.3266956 355.203104,80.701334 349.840256,75.5647568 C344.477408,70.4281797 341.853035,63.6935564 341.853035,55.475033 C341.853035,47.2565096 344.477408,40.6360324 349.840256,35.4994552 C355.203104,30.3628781 361.821086,27.8516626 369.5801,27.8516626 C377.339115,27.8516626 383.842994,30.3628781 389.205842,35.4994552 C394.56869,40.6360324 397.307166,47.2565096 397.307166,55.475033 C397.307166,63.6935564 394.56869,70.4281797 389.205842,75.5647568 Z M420.241899,53.8769867 L420.241899,82.2993802 L406.321314,82.2993802 L406.321314,28.9931242 L420.241899,28.9931242 L420.241899,36.8692091 C423.094477,31.3901935 429.71246,27.8516626 436.102236,27.8516626 C448.767686,27.8516626 455.956184,35.8418937 455.956184,50.7950405 L455.956184,82.2993802 L442.0356,82.2993802 L442.0356,53.3062559 C442.0356,45.6584633 438.156093,41.4350555 431.88042,41.4350555 C425.034231,41.4350555 420.241899,45.2018787 420.241899,53.8769867 Z M518.941123,55.475033 C518.941123,56.958933 518.82702,58.5569792 518.712916,60.2691716 L478.092195,60.2691716 C479.005021,67.2320873 484.938384,71.6837874 492.811502,71.6837874 C498.402556,71.6837874 503.765404,69.2867181 506.16157,64.8350179 L516.773163,70.5423259 C512.209037,79.2174339 502.510269,83.4408418 491.898676,83.4408418 C484.139662,83.4408418 477.635783,80.8154801 472.272935,75.678903 C466.910087,70.4281797 464.285714,63.6935564 464.285714,55.475033 C464.285714,47.2565096 466.910087,40.6360324 472.272935,35.4994552 C477.635783,30.3628781 484.139662,27.8516626 491.898676,27.8516626 C499.657691,27.8516626 506.047467,30.3628781 511.182109,35.4994552 C516.31675,40.6360324 518.941123,47.2565096 518.941123,55.475033 Z M477.978092,50.7950405 L505.362848,50.7950405 C504.33592,43.6038325 498.973072,39.4945708 492.01278,39.4945708 C484.596075,39.4945708 479.005021,43.8321248 477.978092,50.7950405 Z M582.95299,82.2993802 L569.146508,82.2993802 L569.146508,75.1081722 C566.29393,80.2447493 559.561844,83.4408418 552.373346,83.4408418 C545.184847,83.4408418 539.023277,80.9296263 533.888635,75.7930491 C528.753994,70.656472 526.243724,63.9218487 526.243724,55.7033253 C526.243724,47.3706557 528.753994,40.7501785 533.888635,35.6136014 C539.023277,30.4770243 545.184847,27.8516626 552.373346,27.8516626 C559.675947,27.8516626 566.29393,30.9336089 569.146508,36.070186 L569.146508,1.8189894e-12 L582.95299,1.8189894e-12 L582.95299,82.2993802 Z M554.655408,41.092617 C546.782291,41.092617 540.620721,46.9140711 540.620721,55.475033 C540.620721,59.812587 541.989959,63.3511179 544.614331,66.0906257 C547.352807,68.7159873 550.661798,70.0857412 554.655408,70.0857412 C558.649019,70.0857412 561.95801,68.7159873 564.696486,66.0906257 C567.549064,63.3511179 568.918302,59.812587 568.918302,55.475033 C568.918302,51.1374789 567.434961,47.7130942 564.582382,45.0877325 C561.729804,42.4623709 558.420812,41.092617 554.655408,41.092617 Z M646.052031,55.475033 C646.052031,56.958933 645.937928,58.5569792 645.823825,60.2691716 L605.203104,60.2691716 C606.115929,67.2320873 612.049293,71.6837874 619.92241,71.6837874 C625.513464,71.6837874 630.876312,69.2867181 633.272478,64.8350179 L643.884071,70.5423259 C639.319945,79.2174339 629.621178,83.4408418 619.009585,83.4408418 C611.250571,83.4408418 604.746691,80.8154801 599.383843,75.678903 C594.020995,70.4281797 591.396623,63.6935564 591.396623,55.475033 C591.396623,47.2565096 594.020995,40.6360324 599.383843,35.4994552 C604.746691,30.3628781 611.250571,27.8516626 619.009585,27.8516626 C626.768599,27.8516626 633.158375,30.3628781 638.293017,35.4994552 C643.427659,40.6360324 646.052031,47.2565096 646.052031,55.475033 Z M605.089,50.7950405 L632.473756,50.7950405 C631.446828,43.6038325 626.08398,39.4945708 619.123688,39.4945708 C611.706983,39.4945708 606.115929,43.8321248 605.089,50.7950405 Z M668.872661,63.465264 L668.872661,82.2993802 L654.952077,82.2993802 L654.952077,28.9931242 L668.872661,28.9931242 L668.872661,41.5492016 C671.497033,32.417509 677.430397,27.8516626 683.934277,27.8516626 C687.357371,27.8516626 690.324053,28.5365396 692.720219,29.7921473 L690.324053,42.3482247 C688.156093,41.3209093 685.417618,40.8643247 682.222729,40.8643247 C673.322684,40.8643247 668.872661,48.3979711 668.872661,63.465264 Z M736.193519,55.475033 C736.193519,47.2565096 730.146052,41.5492016 722.272935,41.5492016 C714.399817,41.5492016 708.352351,47.2565096 708.352351,55.475033 C708.352351,64.0359948 714.399817,69.7433028 722.272935,69.7433028 C730.146052,69.7433028 736.193519,64.0359948 736.193519,55.475033 Z M741.898676,75.5647568 C736.535828,80.701334 730.031949,83.3266956 722.272935,83.3266956 C714.513921,83.3266956 707.895938,80.701334 702.53309,75.5647568 C697.170242,70.4281797 694.545869,63.6935564 694.545869,55.475033 C694.545869,47.2565096 697.170242,40.6360324 702.53309,35.4994552 C707.895938,30.3628781 714.513921,27.8516626 722.272935,27.8516626 C730.031949,27.8516626 736.535828,30.3628781 741.898676,35.4994552 C747.261524,40.6360324 750,47.2565096 750,55.475033 C750,63.6935564 747.261524,70.4281797 741.898676,75.5647568 Z" id="monedero" fill="#000000" fill-rule="nonzero"></path>
        </g>
    </g>
</svg>